<svg data-v-0dd9719b="" version="1.0" xmlns="http://www.w3.org/2000/svg" xmlns:xlink="http://www.w3.org/1999/xlink" width="100%" height="100%" viewBox="0 0 340.000000 250.000000" preserveAspectRatio="xMidYMid meet" color-interpolation-filters="sRGB" style="margin: auto;"> <rect data-v-0dd9719b="" x="0" y="0" width="100%" height="100%" fill="#fff" fill-opacity="1" class="background"></rect> <rect data-v-0dd9719b="" x="0" y="0" width="100%" height="100%" fill="url(#watermark)" fill-opacity="1" class="watermarklayer"></rect> <g data-v-0dd9719b="" fill="#333" class="icon-text-wrapper icon-svg-group iconsvg" transform="translate(48.410003662109375,98.01874923706055)"><g class="iconsvg-imagesvg" transform="translate(0,5.163068771362305)"><g><rect fill="#333" fill-opacity="0" stroke-width="2" x="0" y="0" width="60" height="43.63636363636363" class="image-rect"></rect> <svg x="0" y="0" width="60" height="43.63636363636363" filtersec="colorsb4708611424" class="image-svg-svg primary" style="overflow: visible;"><svg xmlns="http://www.w3.org/2000/svg" viewBox="0 0 137.5 100"><title>资源 219</title><path fill="#8dc21f" d="M135.67 0L95.04 50.97 137.5 100H95.91L54.32 52.02 95.76 0h39.91z"></path><path fill="#00476e" d="M41.62 52.02L83.2 100H41.58L0 52.02h41.62z"></path></svg></svg> <!----></g></g> <g transform="translate(67,0)"><g data-gra="path-name" fill-rule="" class="tp-name iconsvg-namesvg" transform="translate(0,0)"><g transform="scale(1)"><g><path d="M15.39-21.6Q15.39-24.61 15.57-29.83L15.57-29.83 20.88-29.97 21.06-28.44 26.46-28.75Q26.59-31.14 26.64-34.78L26.64-34.78 32.58-34.88Q32.53-31.36 32.31-29.2L32.31-29.2 37.75-29.11Q42.03-29.02 42.39-25.61L42.39-25.61Q42.61-23.94 42.61-22.27L42.61-22.27Q42.61-19.66 42.07-16.38L42.07-16.38 36.41-17.55Q36.85-21.15 36.85-21.82L36.85-21.82Q36.85-22.41 36.65-22.9 36.45-23.4 35.19-23.4L35.19-23.4Q34.65-23.4 31.63-23.31L31.63-23.31Q31.09-19.62 30.38-16.52L30.38-16.52 33.84-16.65Q33.84-13.41 34.02-5.13L34.02-5.13Q34.02-3.46 35.46-3.46L35.46-3.46Q38.38-3.38 42.98-5.08L42.98-5.08 43.16 2.02Q39.15 3.24 33.39 3.33L33.39 3.33Q28.3 2.92 28.04-2.02L28.04-2.02Q27.95-3.06 27.9-9.76L27.9-9.76Q24.7-1.13 18.54 3.38L18.54 3.38 13.86-0.9Q19.75-5.8 22.52-12.2 25.29-18.59 25.74-22.9L25.74-22.9Q24.88-22.77 21.06-22.54L21.06-22.54 21.29-16.79 15.48-16.34Q15.39-18.59 15.39-21.6ZM15.07-28.75L9.31-25.11Q6.71-28.8 3.1-31.95L3.1-31.95 8.55-34.88Q12.6-32.49 15.07-28.75L15.07-28.75ZM9.36 3.46L9.36 3.46 2.56 0.22Q6.66-5.71 8.59-13.5L8.59-13.5 14.76-11.25Q12.78-1.84 9.36 3.46ZM14.17-18L8.32-14.31Q5.71-18 2.11-21.11L2.11-21.11 7.56-24.48Q11.74-21.69 14.17-18L14.17-18ZM53.41-5.49L53.41 3.69 46.8 3.65Q47.25-8.73 47.25-16.61L47.25-16.61Q47.25-23.4 47.12-26.95L47.12-26.95 53.19-27.36Q53.41-16.7 53.41-5.49L53.41-5.49ZM56.92-1.62L56.92-1.62 55.71-1.67 54.77-8.59Q55.48-8.5 55.89-8.5L55.89-8.5Q57.73-8.5 57.73-10.93L57.73-10.93Q57.73-11.56 57.44-12.98 57.15-14.4 54.95-19.44L54.95-19.44Q58.23-24.84 58.23-26.59L58.23-26.59Q58.23-28.98 55.84-28.98L55.84-28.98Q54-28.98 48.1-28.04L48.1-28.04 47.12-34.02Q54.23-34.96 57.15-34.96L57.15-34.96Q57.42-34.96 58.93-34.9 60.44-34.83 62.28-33.8L62.28-33.8Q64.8-32.31 64.8-28.13L64.8-28.13Q64.8-26.5 64.13-24.57 63.45-22.63 61.29-19.21L61.29-19.21Q63.9-15.34 63.9-10.93L63.9-10.93Q63.9-9.4 63.88-8.1 63.86-6.79 63.47-5.49 63.09-4.18 61.74-2.92L61.74-2.92Q60.21-1.62 56.92-1.62ZM72.77-19.17L72.77-19.17Q77.98-19.39 80.73-19.44L80.73-19.44Q80.82-23.45 80.82-24.88L80.82-24.88Q80.82-26.41 79.97-26.64L79.97-26.64Q79.42-26.82 77.98-26.82L77.98-26.82Q76.55-26.82 72.77-26.5L72.77-26.5Q72.77-24.52 72.77-19.17ZM72.81-12.29L72.81-4.32Q74.88-4.27 80.28-4.37L80.28-4.37 80.55-12.69Q78.84-12.6 72.81-12.29L72.81-12.29ZM66.73 2.48L66.73 2.48 66.73-2.02Q66.73-26.19 66.15-33.21L66.15-33.21 72.54-33.75 72.67-32.71Q76.45-33.07 82.26-32.89L82.26-32.89Q87.39-32.45 87.39-25.2L87.39-25.2Q87.39-4.63 86.72 2.21L86.72 2.21Q73.39 2.34 66.73 2.48ZM101.39 3.28L101.39 3.28 94.09-0.22Q101.83-6.08 102.47-14.04L102.47-14.04Q97.29-14.04 93.38-14.13L93.38-14.13 93.19-20.56Q101.7-20.56 112.39-20.93 123.07-21.29 132.07-21.69L132.07-21.69 132.66-15.25Q126.9-14.63 121.86-14.49L121.86-14.49 122.04-6.25Q122.04-4.23 123.62-4.18L123.62-4.18 124.25-4.18Q127.75-4.18 132.88-6.12L132.88-6.12 132.93 1.4Q129.51 3.1 122.67 3.1L122.67 3.1 121.91 3.1Q116.14 3.01 115.56-2.52L115.56-2.52Q115.25-4.95 115.06-14.35L115.06-14.35Q111.11-14.17 109.94-14.17L109.94-14.17 109.66-14.17Q108.5-1.67 101.39 3.28ZM97.97-26.14L97.83-33.16Q104.76-33.44 113.29-33.8 121.81-34.16 127.22-34.24L127.22-34.24 127.71-27.27Q125.5-27.13 114.5-26.71 103.5-26.28 97.97-26.14L97.97-26.14ZM161.91-22.45L161.91-20.25Q165.1-20.43 168.53-20.61L168.53-20.61Q168.66-21.33 168.8-22.63L168.8-22.63 161.91-22.45ZM147.24-28.57L147.28-26.55 154.35-26.77 154.31-29.02 147.24-28.57ZM147.33-22.18L147.33-20.07Q151.78-20.07 154.35-20.11L154.35-20.11 154.35-22.32 147.33-22.18ZM161.91-27L161.91-27Q165.65-27.13 168.97-27.18L168.97-27.18Q168.93-28.93 167.63-29.2L167.63-29.2Q165.74-29.38 163.03-29.38L163.03-29.38 161.87-29.34Q161.91-28.39 161.91-27ZM152.24-11.21L152.24-11.21 154.62-11.34Q154.35-3.15 150.48 3.55L150.48 3.55 143.91 1.98Q146.66-1.48 147.6-7.29L147.6-7.29Q146.38-6.08 142.29-4.27L142.29-4.27 137.43-8.59Q144.76-11.65 148.37-15.3L148.37-15.3Q145.49-15.25 141.07-15.16L141.07-15.16 141.12-18.9Q141.12-28.17 140.53-34.42L140.53-34.42 147.1-35.32 147.24-33.66Q158.22-34.52 166.63-34.52L166.63-34.52Q168.93-34.52 170.55-34.47L170.55-34.47Q175.72-34.16 175.72-26.91L175.72-26.91Q175.72-21.82 175.09-15.84L175.09-15.84Q173.56-15.79 169.43-15.71L169.43-15.71Q173.7-12.01 178.29-7.29L178.29-7.29 172.08-4Q169.47-6.97 167.72-9L167.72-9Q167.89-4.63 167.89 0.9L167.89 0.9 167.85 2.97 160.97 3.33Q161.01 0.72 161.01-1.67L161.01-1.67Q161.01-6.48 160.74-11.29L160.74-11.29 165.38-11.56Q164.03-13.46 161.32-15.48L161.32-15.48Q159.3-15.43 156.1-15.34L156.1-15.34Q154.17-13.14 152.24-11.21Z" transform="translate(-2.109999895095825, 35.31999969482422)"></path></g> <!----> <!----> <!----> <!----> <!----> <!----> <!----></g></g> <g data-gra="path-slogan" fill-rule="" class="tp-slogan iconsvg-slogansvg" fill="#333" transform="translate(28.229171752929688,45.0099983215332)"><!----> <!----> <g transform="scale(1, 1)"><g transform="scale(1)"><path d="M7.17-6.09L7.17-6.09L6.09-6.09Q6-7.73 3.94-7.83L3.94-7.83Q2.02-7.78 2.02-6.33L2.02-6.33Q2.02-5.39 3.05-5.25L3.05-5.25L5.48-4.69Q7.41-4.22 7.41-2.34L7.41-2.34Q7.36 0.05 4.03 0.14L4.03 0.14Q2.20 0.14 1.45-0.61L1.45-0.61Q0.52-1.31 0.56-2.77L0.56-2.77L1.69-2.77Q1.73-0.80 4.03-0.75L4.03-0.75Q6.28-0.80 6.33-2.20L6.33-2.20Q6.52-3.38 4.45-3.75L4.45-3.75L2.67-4.13Q0.84-4.64 0.84-6.19L0.84-6.19Q0.98-8.72 3.84-8.81L3.84-8.81Q7.08-8.81 7.17-6.09ZM10.03-5.06L14.53-5.06L14.53-8.58L15.70-8.58L15.70 0L14.53 0L14.53-3.98L10.03-3.98L10.03 0L8.86 0L8.86-8.58L10.03-8.58L10.03-5.06ZM18.80-1.03L23.95-1.03L23.95 0L17.63 0L17.63-8.58L23.86-8.58L23.86-7.59L18.80-7.59L18.80-4.92L23.48-4.92L23.48-3.89L18.80-3.89L18.80-1.03ZM26.86-8.58L31.17-1.64L31.17-8.58L32.30-8.58L32.30 0L30.98 0L26.63-6.94L26.58-6.94L26.58 0L25.45 0L25.45-8.58L26.86-8.58ZM41.02-8.58L37.78-3.47L37.78 0L36.61 0L36.61-3.47L33.38-8.58L34.73-8.58L37.17-4.45L39.66-8.58L41.02-8.58ZM47.72 0L46.88-2.48L43.41-2.48L42.52 0L41.34 0L44.58-8.58L45.89-8.58L48.98 0L47.72 0ZM45.14-7.31L43.78-3.52L46.45-3.52L45.19-7.31L45.14-7.31ZM51.42-8.58L55.73-1.64L55.73-8.58L56.86-8.58L56.86 0L55.55 0L51.19-6.94L51.14-6.94L51.14 0L50.02 0L50.02-8.58L51.42-8.58ZM65.06-3.61L62.44-3.61L62.44-4.59L66.19-4.59L66.19 0L65.44 0L65.16-1.08Q64.17 0.09 62.34 0.14L62.34 0.14Q60.61 0.14 59.67-0.75L59.67-0.75Q58.27-2.06 58.31-4.36L58.31-4.36Q58.64-8.63 62.39-8.81L62.39-8.81Q65.58-8.63 66.05-6L66.05-6L64.92-6Q64.45-7.78 62.34-7.83L62.34-7.83Q59.67-7.64 59.53-4.31L59.53-4.31Q59.53-0.75 62.39-0.75L62.39-0.75Q63.42-0.75 64.17-1.31L64.17-1.31Q65.11-2.06 65.06-3.61L65.06-3.61ZM78.23-8.58L75-3.47L75 0L73.83 0L73.83-3.47L70.59-8.58L71.95-8.58L74.39-4.45L76.88-8.58L78.23-8.58ZM84.94-3.19L84.94-8.58L86.11-8.58L86.11-3.05Q85.97 0.05 82.59 0.14L82.59 0.14Q79.45 0.05 79.31-2.86L79.31-2.86L79.31-8.58L80.48-8.58L80.48-3.19Q80.53-0.84 82.64-0.80L82.64-0.80Q84.94-0.84 84.94-3.19L84.94-3.19ZM93.56 0L92.72-2.48L89.25-2.48L88.36 0L87.19 0L90.42-8.58L91.73-8.58L94.83 0L93.56 0ZM90.98-7.31L89.63-3.52L92.30-3.52L91.03-7.31L90.98-7.31ZM97.27-8.58L101.58-1.64L101.58-8.58L102.70-8.58L102.70 0L101.39 0L97.03-6.94L96.98-6.94L96.98 0L95.86 0L95.86-8.58L97.27-8.58ZM103.78-1.92L103.78-2.77L104.86-2.77L104.86-2.16Q104.86-0.75 106.17-0.75L106.17-0.75Q107.53-0.75 107.53-2.25L107.53-2.25L107.53-8.58L108.70-8.58L108.70-2.30Q108.66 0.09 106.22 0.14L106.22 0.14Q103.92 0.09 103.78-1.92L103.78-1.92ZM110.67-8.58L111.84-8.58L111.84 0L110.67 0L110.67-8.58ZM115.13-1.03L120.28-1.03L120.28 0L113.95 0L113.95-8.58L120.19-8.58L120.19-7.59L115.13-7.59L115.13-4.92L119.81-4.92L119.81-3.89L115.13-3.89L115.13-1.03Z" transform="translate(-0.5602678571428572, 8.8125)"></path></g></g></g></g></g><defs v-gra="od"></defs></svg>